{
	"asset":{
		"generator":"Khronos glTF Blender I/O v4.1.63",
		"version":"2.0"
	},
	"extensionsUsed":[
		"KHR_materials_specular"
	],
	"scene":0,
	"scenes":[
		{
			"name":"Scene",
			"nodes":[
				0
			]
		}
	],
	"nodes":[
		{
			"mesh":0,
			"name":"Cylinder"
		}
	],
	"materials":[
		{
			"doubleSided":true,
			"extensions":{
				"KHR_materials_specular":{
					"specularFactor":0.20962196588516235
				}
			},
			"name":"Worn Up Paint",
			"pbrMetallicRoughness":{
				"baseColorFactor":[
					0.06383345276117325,
					0,
					0.8008112907409668,
					1
				],
				"metallicFactor":0
			}
		},
		{
			"doubleSided":true,
			"extensions":{
				"KHR_materials_specular":{}
			},
			"name":"Worn Up Paint.001",
			"pbrMetallicRoughness":{
				"baseColorFactor":[
					0.0009851325303316116,
					0,
					0.0031896932050585747,
					1
				],
				"metallicFactor":0
			}
		}
	],
	"meshes":[
		{
			"name":"Cylinder",
			"primitives":[
				{
					"attributes":{
						"POSITION":0,
						"NORMAL":1,
						"TEXCOORD_0":2,
						"TEXCOORD_1":3
					},
					"indices":4,
					"material":0
				},
				{
					"attributes":{
						"POSITION":5,
						"NORMAL":6,
						"TEXCOORD_0":7,
						"TEXCOORD_1":8
					},
					"indices":9,
					"material":1
				}
			]
		}
	],
	"accessors":[
		{
			"bufferView":0,
			"componentType":5126,
			"count":2861,
			"max":[
				0.6323226690292358,
				1.5357367992401123,
				0.6323226690292358
			],
			"min":[
				-0.6323226690292358,
				-3.5762786865234375e-07,
				-0.6323226690292358
			],
			"type":"VEC3"
		},
		{
			"bufferView":1,
			"componentType":5126,
			"count":2861,
			"type":"VEC3"
		},
		{
			"bufferView":2,
			"componentType":5126,
			"count":2861,
			"type":"VEC2"
		},
		{
			"bufferView":3,
			"componentType":5126,
			"count":2861,
			"type":"VEC2"
		},
		{
			"bufferView":4,
			"componentType":5123,
			"count":10173,
			"type":"SCALAR"
		},
		{
			"bufferView":5,
			"componentType":5126,
			"count":195,
			"max":[
				0.2270277589559555,
				1.5401713848114014,
				0.3965327739715576
			],
			"min":[
				-0.23525197803974152,
				0.004881143569946289,
				-0.5804618000984192
			],
			"type":"VEC3"
		},
		{
			"bufferView":6,
			"componentType":5126,
			"count":195,
			"type":"VEC3"
		},
		{
			"bufferView":7,
			"componentType":5126,
			"count":195,
			"type":"VEC2"
		},
		{
			"bufferView":8,
			"componentType":5126,
			"count":195,
			"type":"VEC2"
		},
		{
			"bufferView":9,
			"componentType":5123,
			"count":291,
			"type":"SCALAR"
		}
	],
	"bufferViews":[
		{
			"buffer":0,
			"byteLength":34332,
			"byteOffset":0,
			"target":34962
		},
		{
			"buffer":0,
			"byteLength":34332,
			"byteOffset":34332,
			"target":34962
		},
		{
			"buffer":0,
			"byteLength":22888,
			"byteOffset":68664,
			"target":34962
		},
		{
			"buffer":0,
			"byteLength":22888,
			"byteOffset":91552,
			"target":34962
		},
		{
			"buffer":0,
			"byteLength":20346,
			"byteOffset":114440,
			"target":34963
		},
		{
			"buffer":0,
			"byteLength":2340,
			"byteOffset":134788,
			"target":34962
		},
		{
			"buffer":0,
			"byteLength":2340,
			"byteOffset":137128,
			"target":34962
		},
		{
			"buffer":0,
			"byteLength":1560,
			"byteOffset":139468,
			"target":34962
		},
		{
			"buffer":0,
			"byteLength":1560,
			"byteOffset":141028,
			"target":34962
		},
		{
			"buffer":0,
			"byteLength":582,
			"byteOffset":142588,
			"target":34963
		}
	],
	"buffers":[
		{
			"byteLength":143172,
			"uri":"barrel-worn.bin"
		}
	]
}
