{"asset":{"version":"2.0","generator":"Blockbench 4.10.4 glTF exporter"},"scenes":[{"nodes":[19],"name":"blockbench_export"}],"scene":0,"nodes":[{"translation":[0,-0.0625,0],"name":"cuboid-col","mesh":0},{"translation":[0,0.375,-0.375],"name":"cuboid-col","mesh":1},{"translation":[-0.25,0,-0.375],"name":"sphere-col","mesh":2},{"translation":[-0.625,0,-0.375],"name":"sphere-col","mesh":3},{"translation":[-0.625,0,-0.75],"name":"sphere-col","mesh":4},{"translation":[-0.25,0,-0.75],"name":"sphere-col","mesh":5},{"translation":[-0.4375,-0.0625,-0.5625],"name":"cylinder-col","mesh":6},{"rotation":[-0.27781593346944056,-0.11507512748638381,0.3649716762170986,0.8811195706053618],"translation":[-0.25,0,-0.375],"name":"cuboid-col","mesh":7},{"rotation":[0.2585282986660472,0.10708592756471896,0.36739517351801176,0.8869704106576007],"translation":[-0.25,0,-0.75],"name":"cuboid-col","mesh":8},{"rotation":[-0.11507512748638457,-0.2778159334694416,0.8811195706053622,0.3649716762170967],"translation":[-0.4375,0.1875,-0.5625],"name":"cuboid-col","mesh":9},{"rotation":[0.11507512748638327,0.27781593346944083,0.8811195706053627,0.36497167621709664],"translation":[-0.4375,0.1875,-0.5625],"name":"cuboid-col","mesh":10},{"rotation":[0,0.2376858923261731,0,0.9713420698132614],"translation":[-0.4375,0.125,-0.5625],"name":"cuboid-col","mesh":11},{"rotation":[-0.6868425644167339,0.1680693062562126,0.16806930625621247,0.6868425644167342],"translation":[-0.4375,0.5,-0.625],"name":"cuboid-col","mesh":12},{"translation":[-0.375,0.4375,-0.0625],"name":"cuboid-col","mesh":13},{"translation":[0.09375,0.29375000000000007,-0.26875000000000004],"name":"cuboid-col","mesh":14},{"translation":[-0.125,0.2875000000000001,-0.28125],"name":"cuboid-col","mesh":15},{"translation":[-0.375,0.4375,-0.0625],"name":"cuboid-col","mesh":16},{"translation":[0.0625,0.4125000000000001,-0.0625],"name":"cuboid-col","mesh":17},{"translation":[0.06249999999999997,0.29375000000000007,-0.06250000000000003],"name":"cuboid-col","mesh":18},{"children":[0,1,2,3,4,5,6,7,8,9,10,11,12,13,14,15,16,17,18]}],"bufferViews":[{"buffer":0,"byteOffset":0,"byteLength":288,"target":34962,"byteStride":12},{"buffer":0,"byteOffset":288,"byteLength":288,"target":34962,"byteStride":12},{"buffer":0,"byteOffset":576,"byteLength":192,"target":34962,"byteStride":8},{"buffer":0,"byteOffset":768,"byteLength":72,"target":34963},{"buffer":0,"byteOffset":840,"byteLength":288,"target":34962,"byteStride":12},{"buffer":0,"byteOffset":1128,"byteLength":288,"target":34962,"byteStride":12},{"buffer":0,"byteOffset":1416,"byteLength":192,"target":34962,"byteStride":8},{"buffer":0,"byteOffset":1608,"byteLength":72,"target":34963},{"buffer":0,"byteOffset":1680,"byteLength":3168,"target":34962,"byteStride":12},{"buffer":0,"byteOffset":4848,"byteLength":3168,"target":34962,"byteStride":12},{"buffer":0,"byteOffset":8016,"byteLength":2112,"target":34962,"byteStride":8},{"buffer":0,"byteOffset":10128,"byteLength":720,"target":34963},{"buffer":0,"byteOffset":10848,"byteLength":3168,"target":34962,"byteStride":12},{"buffer":0,"byteOffset":14016,"byteLength":3168,"target":34962,"byteStride":12},{"buffer":0,"byteOffset":17184,"byteLength":2112,"target":34962,"byteStride":8},{"buffer":0,"byteOffset":19296,"byteLength":720,"target":34963},{"buffer":0,"byteOffset":20016,"byteLength":3168,"target":34962,"byteStride":12},{"buffer":0,"byteOffset":23184,"byteLength":3168,"target":34962,"byteStride":12},{"buffer":0,"byteOffset":26352,"byteLength":2112,"target":34962,"byteStride":8},{"buffer":0,"byteOffset":28464,"byteLength":720,"target":34963},{"buffer":0,"byteOffset":29184,"byteLength":3168,"target":34962,"byteStride":12},{"buffer":0,"byteOffset":32352,"byteLength":3168,"target":34962,"byteStride":12},{"buffer":0,"byteOffset":35520,"byteLength":2112,"target":34962,"byteStride":8},{"buffer":0,"byteOffset":37632,"byteLength":720,"target":34963},{"buffer":0,"byteOffset":38352,"byteLength":1440,"target":34962,"byteStride":12},{"buffer":0,"byteOffset":39792,"byteLength":1440,"target":34962,"byteStride":12},{"buffer":0,"byteOffset":41232,"byteLength":960,"target":34962,"byteStride":8},{"buffer":0,"byteOffset":42192,"byteLength":288,"target":34963},{"buffer":0,"byteOffset":42480,"byteLength":288,"target":34962,"byteStride":12},{"buffer":0,"byteOffset":42768,"byteLength":288,"target":34962,"byteStride":12},{"buffer":0,"byteOffset":43056,"byteLength":192,"target":34962,"byteStride":8},{"buffer":0,"byteOffset":43248,"byteLength":72,"target":34963},{"buffer":0,"byteOffset":43320,"byteLength":288,"target":34962,"byteStride":12},{"buffer":0,"byteOffset":43608,"byteLength":288,"target":34962,"byteStride":12},{"buffer":0,"byteOffset":43896,"byteLength":192,"target":34962,"byteStride":8},{"buffer":0,"byteOffset":44088,"byteLength":72,"target":34963},{"buffer":0,"byteOffset":44160,"byteLength":288,"target":34962,"byteStride":12},{"buffer":0,"byteOffset":44448,"byteLength":288,"target":34962,"byteStride":12},{"buffer":0,"byteOffset":44736,"byteLength":192,"target":34962,"byteStride":8},{"buffer":0,"byteOffset":44928,"byteLength":72,"target":34963},{"buffer":0,"byteOffset":45000,"byteLength":288,"target":34962,"byteStride":12},{"buffer":0,"byteOffset":45288,"byteLength":288,"target":34962,"byteStride":12},{"buffer":0,"byteOffset":45576,"byteLength":192,"target":34962,"byteStride":8},{"buffer":0,"byteOffset":45768,"byteLength":72,"target":34963},{"buffer":0,"byteOffset":45840,"byteLength":288,"target":34962,"byteStride":12},{"buffer":0,"byteOffset":46128,"byteLength":288,"target":34962,"byteStride":12},{"buffer":0,"byteOffset":46416,"byteLength":192,"target":34962,"byteStride":8},{"buffer":0,"byteOffset":46608,"byteLength":72,"target":34963},{"buffer":0,"byteOffset":46680,"byteLength":288,"target":34962,"byteStride":12},{"buffer":0,"byteOffset":46968,"byteLength":288,"target":34962,"byteStride":12},{"buffer":0,"byteOffset":47256,"byteLength":192,"target":34962,"byteStride":8},{"buffer":0,"byteOffset":47448,"byteLength":72,"target":34963},{"buffer":0,"byteOffset":47520,"byteLength":288,"target":34962,"byteStride":12},{"buffer":0,"byteOffset":47808,"byteLength":288,"target":34962,"byteStride":12},{"buffer":0,"byteOffset":48096,"byteLength":192,"target":34962,"byteStride":8},{"buffer":0,"byteOffset":48288,"byteLength":72,"target":34963},{"buffer":0,"byteOffset":48360,"byteLength":288,"target":34962,"byteStride":12},{"buffer":0,"byteOffset":48648,"byteLength":288,"target":34962,"byteStride":12},{"buffer":0,"byteOffset":48936,"byteLength":192,"target":34962,"byteStride":8},{"buffer":0,"byteOffset":49128,"byteLength":72,"target":34963},{"buffer":0,"byteOffset":49200,"byteLength":288,"target":34962,"byteStride":12},{"buffer":0,"byteOffset":49488,"byteLength":288,"target":34962,"byteStride":12},{"buffer":0,"byteOffset":49776,"byteLength":192,"target":34962,"byteStride":8},{"buffer":0,"byteOffset":49968,"byteLength":72,"target":34963},{"buffer":0,"byteOffset":50040,"byteLength":288,"target":34962,"byteStride":12},{"buffer":0,"byteOffset":50328,"byteLength":288,"target":34962,"byteStride":12},{"buffer":0,"byteOffset":50616,"byteLength":192,"target":34962,"byteStride":8},{"buffer":0,"byteOffset":50808,"byteLength":72,"target":34963},{"buffer":0,"byteOffset":50880,"byteLength":480,"target":34962,"byteStride":12},{"buffer":0,"byteOffset":51360,"byteLength":480,"target":34962,"byteStride":12},{"buffer":0,"byteOffset":51840,"byteLength":320,"target":34962,"byteStride":8},{"buffer":0,"byteOffset":52160,"byteLength":120,"target":34963},{"buffer":0,"byteOffset":52280,"byteLength":288,"target":34962,"byteStride":12},{"buffer":0,"byteOffset":52568,"byteLength":288,"target":34962,"byteStride":12},{"buffer":0,"byteOffset":52856,"byteLength":192,"target":34962,"byteStride":8},{"buffer":0,"byteOffset":53048,"byteLength":72,"target":34963}],"buffers":[{"byteLength":53120,"uri":"data:application/octet-stream;base64,"}],"accessors":[{"bufferView":0,"componentType":5126,"count":24,"max":[0.4375,0.4375,0.125],"min":[-0.4375,0.0625,-0.125],"type":"VEC3"},{"bufferView":1,"componentType":5126,"count":24,"max":[1,1,1],"min":[-1,-1,0],"type":"VEC3"},{"bufferView":2,"componentType":5126,"count":24,"max":[0.90625,0.5625],"min":[0,0],"type":"VEC2"},{"bufferView":3,"componentType":5123,"count":36,"max":[23],"min":[0],"type":"SCALAR"},{"bufferView":4,"componentType":5126,"count":24,"max":[0.5,0.0625,0.5],"min":[-0.5,0,0],"type":"VEC3"},{"bufferView":5,"componentType":5126,"count":24,"max":[1,1,1],"min":[-1,-1,-1],"type":"VEC3"},{"bufferView":6,"componentType":5126,"count":24,"max":[0.515625,0.265625],"min":[0,0],"type":"VEC2"},{"bufferView":7,"componentType":5123,"count":36,"max":[23],"min":[0],"type":"SCALAR"},{"bufferView":8,"componentType":5126,"count":264,"max":[0.03125,0.03125,0.03125],"min":[-0.03125,-0.03125,-0.03125],"type":"VEC3"},{"bufferView":9,"componentType":5126,"count":264,"max":[0.9659258127212524,0.9659258127212524,0.9659258127212524],"min":[-0.9659258127212524,-0.9659258127212524,-0.9659258127212524],"type":"VEC3"},{"bufferView":10,"componentType":5126,"count":264,"max":[0.4063708782196045,0.375],"min":[0.00516127422451973,0.008089303970336914],"type":"VEC2"},{"bufferView":11,"componentType":5123,"count":360,"max":[263],"min":[0],"type":"SCALAR"},{"bufferView":12,"componentType":5126,"count":264,"max":[0.03125,0.03125,0.03125],"min":[-0.03125,-0.03125,-0.03125],"type":"VEC3"},{"bufferView":13,"componentType":5126,"count":264,"max":[0.9659258127212524,0.9659258127212524,0.9659258127212524],"min":[-0.9659258127212524,-0.9659258127212524,-0.9659258127212524],"type":"VEC3"},{"bufferView":14,"componentType":5126,"count":264,"max":[0.46878737211227417,0.4375],"min":[0.00516127422451973,0.008089303970336914],"type":"VEC2"},{"bufferView":15,"componentType":5123,"count":360,"max":[263],"min":[0],"type":"SCALAR"},{"bufferView":16,"componentType":5126,"count":264,"max":[0.03125,0.03125,0.03125],"min":[-0.03125,-0.03125,-0.03125],"type":"VEC3"},{"bufferView":17,"componentType":5126,"count":264,"max":[0.9659258127212524,0.9659258127212524,0.9659258127212524],"min":[-0.9659258127212524,-0.9659258127212524,-0.9659258127212524],"type":"VEC3"},{"bufferView":18,"componentType":5126,"count":264,"max":[0.35100001096725464,0.3125],"min":[0.00516127422451973,0],"type":"VEC2"},{"bufferView":19,"componentType":5123,"count":360,"max":[263],"min":[0],"type":"SCALAR"},{"bufferView":20,"componentType":5126,"count":264,"max":[0.03125,0.03125,0.03125],"min":[-0.03125,-0.03125,-0.03125],"type":"VEC3"},{"bufferView":21,"componentType":5126,"count":264,"max":[0.9659258127212524,0.9659258127212524,0.9659258127212524],"min":[-0.9659258127212524,-0.9659258127212524,-0.9659258127212524],"type":"VEC3"},{"bufferView":22,"componentType":5126,"count":264,"max":[0.2813708782196045,0.25],"min":[0.00516127422451973,0.008089303970336914],"type":"VEC2"},{"bufferView":23,"componentType":5123,"count":360,"max":[263],"min":[0],"type":"SCALAR"},{"bufferView":24,"componentType":5126,"count":120,"max":[0.03125,0.3125,0.03125],"min":[-0.03125,0.125,-0.03125],"type":"VEC3"},{"bufferView":25,"componentType":5126,"count":120,"max":[1,1,1],"min":[-1,-1,-1],"type":"VEC3"},{"bufferView":26,"componentType":5126,"count":120,"max":[0.1875,0.1875],"min":[0,0],"type":"VEC2"},{"bufferView":27,"componentType":5123,"count":144,"max":[119],"min":[0],"type":"SCALAR"},{"bufferView":28,"componentType":5126,"count":24,"max":[0.03125,0.3125,0.03125],"min":[-0.03125,0,-0.03125],"type":"VEC3"},{"bufferView":29,"componentType":5126,"count":24,"max":[1,1,1],"min":[-1,-1,-1],"type":"VEC3"},{"bufferView":30,"componentType":5126,"count":24,"max":[0.40625,0.40625],"min":[0.0625,0],"type":"VEC2"},{"bufferView":31,"componentType":5123,"count":36,"max":[23],"min":[0],"type":"SCALAR"},{"bufferView":32,"componentType":5126,"count":24,"max":[0.03125,0.3125,0.03125],"min":[-0.03125,0,-0.03125],"type":"VEC3"},{"bufferView":33,"componentType":5126,"count":24,"max":[1,1,1],"min":[-1,-1,-1],"type":"VEC3"},{"bufferView":34,"componentType":5126,"count":24,"max":[0.40625,0.40625],"min":[0,0],"type":"VEC2"},{"bufferView":35,"componentType":5123,"count":36,"max":[23],"min":[0],"type":"SCALAR"},{"bufferView":36,"componentType":5126,"count":24,"max":[0.03125,0.3125,0.03125],"min":[-0.03125,0,-0.03125],"type":"VEC3"},{"bufferView":37,"componentType":5126,"count":24,"max":[1,1,1],"min":[-1,-1,-1],"type":"VEC3"},{"bufferView":38,"componentType":5126,"count":24,"max":[0.40625,0.40625],"min":[0.25,0],"type":"VEC2"},{"bufferView":39,"componentType":5123,"count":36,"max":[23],"min":[0],"type":"SCALAR"},{"bufferView":40,"componentType":5126,"count":24,"max":[0.03125,0.3125,0.03125],"min":[-0.03125,0,-0.03125],"type":"VEC3"},{"bufferView":41,"componentType":5126,"count":24,"max":[1,1,1],"min":[-1,-1,-1],"type":"VEC3"},{"bufferView":42,"componentType":5126,"count":24,"max":[0.46875,0.53125],"min":[0,0],"type":"VEC2"},{"bufferView":43,"componentType":5123,"count":36,"max":[23],"min":[0],"type":"SCALAR"},{"bufferView":44,"componentType":5126,"count":24,"max":[0.28125,0.1875,0.21875],"min":[-0.28125,0.125,-0.21875],"type":"VEC3"},{"bufferView":45,"componentType":5126,"count":24,"max":[1,1,1],"min":[-1,-1,-1],"type":"VEC3"},{"bufferView":46,"componentType":5126,"count":24,"max":[0.59375,0.46875],"min":[0,0],"type":"VEC2"},{"bufferView":47,"componentType":5123,"count":36,"max":[23],"min":[0],"type":"SCALAR"},{"bufferView":48,"componentType":5126,"count":24,"max":[0.28125,0.1875,0.21875],"min":[-0.28125,0.125,-0.21875],"type":"VEC3"},{"bufferView":49,"componentType":5126,"count":24,"max":[1,1,1],"min":[-1,-1,-1],"type":"VEC3"},{"bufferView":50,"componentType":5126,"count":24,"max":[0.5625,0.65625],"min":[0,0.03125],"type":"VEC2"},{"bufferView":51,"componentType":5123,"count":36,"max":[23],"min":[0],"type":"SCALAR"},{"bufferView":52,"componentType":5126,"count":24,"max":[0.09375,0.3125,0.15625],"min":[-0.09375,0,-0.15625],"type":"VEC3"},{"bufferView":53,"componentType":5126,"count":24,"max":[1,1,1],"min":[-1,-1,-1],"type":"VEC3"},{"bufferView":54,"componentType":5126,"count":24,"max":[0.8125,0.6875],"min":[0,0],"type":"VEC2"},{"bufferView":55,"componentType":5123,"count":36,"max":[23],"min":[0],"type":"SCALAR"},{"bufferView":56,"componentType":5126,"count":24,"max":[0.15625,0.16875000298023224,0.06875000149011612],"min":[-0.15625,0.14374999701976776,-0.06875000149011612],"type":"VEC3"},{"bufferView":57,"componentType":5126,"count":24,"max":[1,1,1],"min":[-1,-1,-1],"type":"VEC3"},{"bufferView":58,"componentType":5126,"count":24,"max":[0.6875,0.4375],"min":[0,0],"type":"VEC2"},{"bufferView":59,"componentType":5123,"count":36,"max":[23],"min":[0],"type":"SCALAR"},{"bufferView":60,"componentType":5126,"count":24,"max":[0.017812499776482582,0.1603125035762787,0.037812501192092896],"min":[-0.017812499776482582,0.1521874964237213,-0.037812501192092896],"type":"VEC3"},{"bufferView":61,"componentType":5126,"count":24,"max":[1,1,1],"min":[-1,-1,-1],"type":"VEC3"},{"bufferView":62,"componentType":5126,"count":24,"max":[0.3125,0.3125],"min":[0,0],"type":"VEC2"},{"bufferView":63,"componentType":5123,"count":36,"max":[23],"min":[0],"type":"SCALAR"},{"bufferView":64,"componentType":5126,"count":24,"max":[0.09375,0.3125,0.15625],"min":[-0.09375,0,-0.15625],"type":"VEC3"},{"bufferView":65,"componentType":5126,"count":24,"max":[1,1,1],"min":[-1,-1,-1],"type":"VEC3"},{"bufferView":66,"componentType":5126,"count":24,"max":[0.0625,0.3125],"min":[0,0],"type":"VEC2"},{"bufferView":67,"componentType":5123,"count":36,"max":[23],"min":[0],"type":"SCALAR"},{"bufferView":68,"componentType":5126,"count":40,"max":[0.13124999403953552,0.26875001192092896,0.08124999701976776],"min":[-0.13124999403953552,0.04374999925494194,-0.08124999701976776],"type":"VEC3"},{"bufferView":69,"componentType":5126,"count":40,"max":[1,1,1],"min":[-1,-1,-1],"type":"VEC3"},{"bufferView":70,"componentType":5126,"count":40,"max":[0.8500000238418579,0.8500000238418579],"min":[0,0],"type":"VEC2"},{"bufferView":71,"componentType":5123,"count":60,"max":[39],"min":[0],"type":"SCALAR"},{"bufferView":72,"componentType":5126,"count":24,"max":[0.09375,0.16875000298023224,0.06875000149011612],"min":[-0.09375,0.14374999701976776,-0.06875000149011612],"type":"VEC3"},{"bufferView":73,"componentType":5126,"count":24,"max":[1,1,1],"min":[-1,-1,-1],"type":"VEC3"},{"bufferView":74,"componentType":5126,"count":24,"max":[0.4375,0.4375],"min":[0,0],"type":"VEC2"},{"bufferView":75,"componentType":5123,"count":36,"max":[23],"min":[0],"type":"SCALAR"}],"materials":[{"pbrMetallicRoughness":{"metallicFactor":0,"roughnessFactor":1,"baseColorTexture":{"index":0}},"alphaMode":"MASK","alphaCutoff":0.05,"doubleSided":true},{"pbrMetallicRoughness":{"metallicFactor":0,"roughnessFactor":1,"baseColorTexture":{"index":1}},"alphaMode":"MASK","alphaCutoff":0.05,"doubleSided":true},{"pbrMetallicRoughness":{"metallicFactor":0,"roughnessFactor":1,"baseColorTexture":{"index":2}},"alphaMode":"MASK","alphaCutoff":0.05,"doubleSided":true},{"pbrMetallicRoughness":{"metallicFactor":0,"roughnessFactor":1,"baseColorTexture":{"index":3}},"alphaMode":"MASK","alphaCutoff":0.05,"doubleSided":true},{"pbrMetallicRoughness":{"metallicFactor":0,"roughnessFactor":1,"baseColorTexture":{"index":4}},"alphaMode":"MASK","alphaCutoff":0.05,"doubleSided":true},{"pbrMetallicRoughness":{"metallicFactor":0,"roughnessFactor":1,"baseColorTexture":{"index":5}},"alphaMode":"MASK","alphaCutoff":0.05,"doubleSided":true},{"pbrMetallicRoughness":{"metallicFactor":0,"roughnessFactor":1,"baseColorTexture":{"index":6}},"alphaMode":"MASK","alphaCutoff":0.05,"doubleSided":true},{"pbrMetallicRoughness":{"metallicFactor":0,"roughnessFactor":1,"baseColorTexture":{"index":7}},"alphaMode":"MASK","alphaCutoff":0.05,"doubleSided":true},{"pbrMetallicRoughness":{"metallicFactor":0,"roughnessFactor":1},"alphaMode":"MASK","alphaCutoff":0.05,"doubleSided":true},{"pbrMetallicRoughness":{"metallicFactor":0,"roughnessFactor":1,"baseColorTexture":{"index":8}},"alphaMode":"MASK","alphaCutoff":0.05,"doubleSided":true},{"pbrMetallicRoughness":{"metallicFactor":0,"roughnessFactor":1,"baseColorTexture":{"index":9}},"alphaMode":"MASK","alphaCutoff":0.05,"doubleSided":true}],"textures":[{"sampler":0,"source":0,"name":"texture"},{"sampler":1,"source":1,"name":"texture"},{"sampler":2,"source":2,"name":"texture"},{"sampler":3,"source":3,"name":"texture"},{"sampler":4,"source":4,"name":"texture"},{"sampler":5,"source":5,"name":"texture"},{"sampler":6,"source":6,"name":"texture"},{"sampler":7,"source":7,"name":"texture"},{"sampler":8,"source":8,"name":"texture"},{"sampler":9,"source":9,"name":"texture"}],"samplers":[{"magFilter":9728,"minFilter":9728,"wrapS":33071,"wrapT":33071},{"magFilter":9728,"minFilter":9728,"wrapS":33071,"wrapT":33071},{"magFilter":9728,"minFilter":9728,"wrapS":33071,"wrapT":33071},{"magFilter":9728,"minFilter":9728,"wrapS":33071,"wrapT":33071},{"magFilter":9728,"minFilter":9728,"wrapS":33071,"wrapT":33071},{"magFilter":9728,"minFilter":9728,"wrapS":33071,"wrapT":33071},{"magFilter":9728,"minFilter":9728,"wrapS":33071,"wrapT":33071},{"magFilter":9728,"minFilter":9728,"wrapS":33071,"wrapT":33071},{"magFilter":9728,"minFilter":9728,"wrapS":33071,"wrapT":33071},{"magFilter":9728,"minFilter":9728,"wrapS":33071,"wrapT":33071}],"images":[{"mimeType":"image/png","uri":"data:image/png;base64,"},{"mimeType":"image/png","uri":"data:image/png;base64,"},{"mimeType":"image/png","uri":"data:image/png;base64,"},{"mimeType":"image/png","uri":"data:image/png;base64,"},{"mimeType":"image/png","uri":"data:image/png;base64,"},{"mimeType":"image/png","uri":"data:image/png;base64,"},{"mimeType":"image/png","uri":"data:image/png;base64,"},{"mimeType":"image/png","uri":"data:image/png;base64,"},{"mimeType":"image/png","uri":"data:image/png;base64,"},{"mimeType":"image/png","uri":"data:image/png;base64,"}],"meshes":[{"primitives":[{"mode":4,"attributes":{"POSITION":0,"NORMAL":1,"TEXCOORD_0":2},"indices":3,"material":0}]},{"primitives":[{"mode":4,"attributes":{"POSITION":4,"NORMAL":5,"TEXCOORD_0":6},"indices":7,"material":1}]},{"primitives":[{"mode":4,"attributes":{"POSITION":8,"NORMAL":9,"TEXCOORD_0":10},"indices":11,"material":2}]},{"primitives":[{"mode":4,"attributes":{"POSITION":12,"NORMAL":13,"TEXCOORD_0":14},"indices":15,"material":2}]},{"primitives":[{"mode":4,"attributes":{"POSITION":16,"NORMAL":17,"TEXCOORD_0":18},"indices":19,"material":2}]},{"primitives":[{"mode":4,"attributes":{"POSITION":20,"NORMAL":21,"TEXCOORD_0":22},"indices":23,"material":2}]},{"primitives":[{"mode":4,"attributes":{"POSITION":24,"NORMAL":25,"TEXCOORD_0":26},"indices":27,"material":3}]},{"primitives":[{"mode":4,"attributes":{"POSITION":28,"NORMAL":29,"TEXCOORD_0":30},"indices":31,"material":3}]},{"primitives":[{"mode":4,"attributes":{"POSITION":32,"NORMAL":33,"TEXCOORD_0":34},"indices":35,"material":3}]},{"primitives":[{"mode":4,"attributes":{"POSITION":36,"NORMAL":37,"TEXCOORD_0":38},"indices":39,"material":3}]},{"primitives":[{"mode":4,"attributes":{"POSITION":40,"NORMAL":41,"TEXCOORD_0":42},"indices":43,"material":3}]},{"primitives":[{"mode":4,"attributes":{"POSITION":44,"NORMAL":45,"TEXCOORD_0":46},"indices":47,"material":4}]},{"primitives":[{"mode":4,"attributes":{"POSITION":48,"NORMAL":49,"TEXCOORD_0":50},"indices":51,"material":4}]},{"primitives":[{"mode":4,"attributes":{"POSITION":52,"NORMAL":53,"TEXCOORD_0":54},"indices":55,"material":5}]},{"primitives":[{"mode":4,"attributes":{"POSITION":56,"NORMAL":57,"TEXCOORD_0":58},"indices":59,"material":6}]},{"primitives":[{"mode":4,"attributes":{"POSITION":60,"NORMAL":61,"TEXCOORD_0":62},"indices":63,"material":7}]},{"primitives":[{"mode":4,"attributes":{"POSITION":64,"NORMAL":65,"TEXCOORD_0":66},"indices":67,"material":8}]},{"primitives":[{"mode":4,"attributes":{"POSITION":68,"NORMAL":69,"TEXCOORD_0":70},"indices":71,"material":9}]},{"primitives":[{"mode":4,"attributes":{"POSITION":72,"NORMAL":73,"TEXCOORD_0":74},"indices":75,"material":10}]}]}